<svg width="498" height="155" viewBox="0 0 498 155" fill="none" xmlns="http://www.w3.org/2000/svg">
<rect x="8.5" y="8.5" width="481" height="138" rx="27.5" stroke="#A0A0A0" stroke-width="17"/>
<path d="M45.1733 116V43.2727H92.4744V54.3168H58.348V74.0611H90.0241V85.1051H58.348V104.956H92.7585V116H45.1733ZM116.924 43.2727L132.94 69.9062H133.508L149.594 43.2727H164.616L142.208 79.6364L164.971 116H149.701L133.508 89.544H132.94L116.746 116H101.548L124.523 79.6364L101.832 43.2727H116.924ZM174.958 116V43.2727H202.231C207.818 43.2727 212.506 44.3144 216.294 46.3977C220.105 48.4811 222.982 51.3456 224.923 54.9915C226.888 58.6136 227.87 62.733 227.87 67.3494C227.87 72.0133 226.888 76.1562 224.923 79.7784C222.958 83.4006 220.058 86.2533 216.223 88.3366C212.387 90.3963 207.664 91.4261 202.054 91.4261H183.978V80.5952H200.278C203.545 80.5952 206.22 80.027 208.304 78.8906C210.387 77.7543 211.926 76.1918 212.92 74.2031C213.938 72.2145 214.447 69.9299 214.447 67.3494C214.447 64.7689 213.938 62.4962 212.92 60.5312C211.926 58.5663 210.375 57.0393 208.268 55.9503C206.185 54.8376 203.498 54.2812 200.207 54.2812H188.133V116H174.958ZM252.489 43.2727V116H239.314V43.2727H252.489ZM266.755 116V43.2727H294.028C299.615 43.2727 304.303 44.2434 308.091 46.1847C311.902 48.1259 314.779 50.8485 316.72 54.3523C318.685 57.8324 319.667 61.8925 319.667 66.5327C319.667 71.1965 318.673 75.2448 316.684 78.6776C314.719 82.0866 311.819 84.7263 307.984 86.5966C304.149 88.4432 299.438 89.3665 293.85 89.3665H274.426V78.429H292.075C295.342 78.429 298.017 77.9792 300.1 77.0795C302.184 76.1562 303.723 74.8187 304.717 73.0668C305.735 71.2912 306.244 69.1132 306.244 66.5327C306.244 63.9522 305.735 61.7505 304.717 59.9276C303.699 58.081 302.148 56.6842 300.065 55.7372C297.982 54.7666 295.295 54.2812 292.004 54.2812H279.93V116H266.755ZM304.326 83.0455L322.331 116H307.629L289.944 83.0455H304.326ZM331.794 116V43.2727H379.096V54.3168H344.969V74.0611H376.645V85.1051H344.969V104.956H379.38V116H331.794ZM417.181 116H392.537V43.2727H417.679C424.899 43.2727 431.102 44.7287 436.287 47.6406C441.495 50.5289 445.496 54.6837 448.289 60.1051C451.083 65.5265 452.48 72.0133 452.48 79.5653C452.48 87.1411 451.071 93.6515 448.254 99.0966C445.46 104.542 441.424 108.72 436.145 111.632C430.889 114.544 424.568 116 417.181 116ZM405.711 104.601H416.542C421.609 104.601 425.834 103.678 429.22 101.831C432.605 99.9607 435.15 97.179 436.855 93.4858C438.559 89.7689 439.412 85.1288 439.412 79.5653C439.412 74.0019 438.559 69.3854 436.855 65.7159C435.15 62.0227 432.629 59.2647 429.291 57.4418C425.976 55.5952 421.857 54.6719 416.933 54.6719H405.711V104.601Z" fill="#A0A0A0"/>
</svg>
