<svg width="352" height="155" viewBox="0 0 352 155" fill="none" xmlns="http://www.w3.org/2000/svg">
<rect x="8.5" y="8.5" width="335" height="138" rx="27.5" stroke="#A0A0A0" stroke-width="17"/>
<path d="M34.0213 103V52.0909H67.1321V59.8217H43.2436V73.6428H65.4169V81.3736H43.2436V95.2692H67.331V103H34.0213ZM84.2468 52.0909L95.4577 70.7344H95.8555L107.116 52.0909H117.631L101.946 77.5455L117.88 103H107.191L95.8555 84.4808H95.4577L84.1225 103H73.4833L89.5664 77.5455L73.6822 52.0909H84.2468ZM124.871 103V52.0909H143.962C147.873 52.0909 151.154 52.8201 153.806 54.2784C156.474 55.7367 158.487 57.7419 159.846 60.294C161.222 62.8295 161.909 65.7131 161.909 68.9446C161.909 72.2093 161.222 75.1094 159.846 77.6449C158.471 80.1804 156.441 82.1773 153.756 83.6357C151.071 85.0774 147.765 85.7983 143.838 85.7983H131.185V78.2166H142.595C144.882 78.2166 146.754 77.8189 148.213 77.0234C149.671 76.228 150.748 75.1342 151.444 73.7422C152.157 72.3501 152.513 70.7509 152.513 68.9446C152.513 67.1383 152.157 65.5473 151.444 64.1719C150.748 62.7964 149.663 61.7275 148.188 60.9652C146.729 60.1863 144.848 59.7969 142.545 59.7969H134.093V103H124.871ZM179.142 52.0909V103H169.92V52.0909H179.142ZM189.129 103V52.0909H208.22C212.131 52.0909 215.412 52.7704 218.063 54.1293C220.731 55.4882 222.745 57.3939 224.104 59.8466C225.479 62.2827 226.167 65.1248 226.167 68.3729C226.167 71.6375 225.471 74.4714 224.079 76.8743C222.704 79.2607 220.673 81.1084 217.989 82.4176C215.304 83.7102 212.006 84.3565 208.095 84.3565H194.498V76.7003H206.852C209.139 76.7003 211.012 76.3854 212.47 75.7557C213.929 75.1094 215.006 74.1731 215.702 72.9467C216.414 71.7038 216.771 70.1792 216.771 68.3729C216.771 66.5665 216.414 65.0253 215.702 63.7493C214.989 62.4567 213.904 61.4789 212.445 60.816C210.987 60.1366 209.106 59.7969 206.803 59.7969H198.351V103H189.129ZM215.428 79.9318L228.031 103H217.74L205.361 79.9318H215.428ZM234.656 103V52.0909H267.767V59.8217H243.878V73.6428H266.052V81.3736H243.878V95.2692H267.966V103H234.656ZM294.427 103H277.176V52.0909H294.775C299.829 52.0909 304.171 53.1101 307.801 55.1484C311.446 57.1702 314.247 60.0786 316.203 63.8736C318.158 67.6686 319.136 72.2093 319.136 77.4957C319.136 82.7988 318.15 87.3561 316.178 91.1676C314.222 94.9792 311.397 97.9041 307.701 99.9425C304.022 101.981 299.597 103 294.427 103ZM286.398 95.0206H293.98C297.526 95.0206 300.484 94.3743 302.854 93.0817C305.224 91.7725 307.005 89.8253 308.198 87.2401C309.392 84.6383 309.988 81.3902 309.988 77.4957C309.988 73.6013 309.392 70.3698 308.198 67.8011C307.005 65.2159 305.24 63.2853 302.904 62.0092C300.584 60.7166 297.7 60.0703 294.253 60.0703H286.398V95.0206Z" fill="#A0A0A0"/>
</svg>
