<svg width="220" height="58" viewBox="0 0 220 58" fill="none" xmlns="http://www.w3.org/2000/svg">
<rect x="2.5" y="2.5" width="215" height="53" rx="17.5" stroke="#5CB338" stroke-width="5"/>
<path d="M12.1634 42V18.7273H21.3452C23.1027 18.7273 24.6027 19.0417 25.8452 19.6705C27.0952 20.2917 28.0459 21.1742 28.6974 22.3182C29.3565 23.4545 29.6861 24.7917 29.6861 26.3295C29.6861 27.875 29.3527 29.2045 28.6861 30.3182C28.0194 31.4242 27.0535 32.2727 25.7884 32.8636C24.5308 33.4545 23.008 33.75 21.2202 33.75H15.0724V29.7955H20.4247C21.3641 29.7955 22.1444 29.6667 22.7656 29.4091C23.3868 29.1515 23.849 28.7652 24.152 28.25C24.4626 27.7348 24.6179 27.0947 24.6179 26.3295C24.6179 25.5568 24.4626 24.9053 24.152 24.375C23.849 23.8447 23.383 23.4432 22.7543 23.1705C22.133 22.8902 21.349 22.75 20.402 22.75H17.0838V42H12.1634ZM24.7315 31.4091L30.5156 42H25.0838L19.4247 31.4091H24.7315ZM33.1634 42V18.7273H48.8452V22.7841H38.0838V28.3295H48.0384V32.3864H38.0838V37.9432H48.8906V42H33.1634ZM68.1889 26.25C68.0298 25.697 67.8063 25.2083 67.5185 24.7841C67.2306 24.3523 66.8783 23.9886 66.4616 23.6932C66.0526 23.3902 65.5829 23.1591 65.0526 23C64.5298 22.8409 63.9503 22.7614 63.3139 22.7614C62.1245 22.7614 61.0791 23.0568 60.1776 23.6477C59.2836 24.2386 58.5866 25.0985 58.0866 26.2273C57.5866 27.3485 57.3366 28.7197 57.3366 30.3409C57.3366 31.9621 57.5829 33.3409 58.0753 34.4773C58.5677 35.6136 59.2647 36.4811 60.1662 37.0795C61.0677 37.6705 62.1321 37.9659 63.3594 37.9659C64.473 37.9659 65.4238 37.7689 66.2116 37.375C67.0071 36.9735 67.6132 36.4091 68.0298 35.6818C68.4541 34.9545 68.6662 34.0947 68.6662 33.1023L69.6662 33.25H63.6662V29.5455H73.4048V32.4773C73.4048 34.5227 72.973 36.2803 72.1094 37.75C71.2457 39.2121 70.0563 40.3409 68.5412 41.1364C67.026 41.9242 65.2912 42.3182 63.3366 42.3182C61.1548 42.3182 59.2382 41.8371 57.5866 40.875C55.9351 39.9053 54.6473 38.5303 53.723 36.75C52.8063 34.9621 52.348 32.8409 52.348 30.3864C52.348 28.5 52.6207 26.8182 53.1662 25.3409C53.7192 23.8561 54.492 22.5985 55.4844 21.5682C56.4768 20.5379 57.6321 19.7538 58.9503 19.2159C60.2685 18.678 61.6965 18.4091 63.2344 18.4091C64.5526 18.4091 65.7798 18.6023 66.9162 18.9886C68.0526 19.3674 69.0601 19.9053 69.9389 20.6023C70.8253 21.2992 71.5488 22.1288 72.1094 23.0909C72.67 24.0455 73.0298 25.0985 73.1889 26.25H68.1889ZM82.0213 18.7273V42H77.1009V18.7273H82.0213ZM98.6946 25.4205C98.6037 24.5038 98.2135 23.7917 97.5241 23.2841C96.8348 22.7765 95.8991 22.5227 94.7173 22.5227C93.9143 22.5227 93.2363 22.6364 92.6832 22.8636C92.1302 23.0833 91.706 23.3902 91.4105 23.7841C91.1226 24.178 90.9787 24.625 90.9787 25.125C90.9635 25.5417 91.0507 25.9053 91.2401 26.2159C91.437 26.5265 91.706 26.7955 92.0469 27.0227C92.3878 27.2424 92.7817 27.4356 93.2287 27.6023C93.6757 27.7614 94.1529 27.8977 94.6605 28.0114L96.7514 28.5114C97.7666 28.7386 98.6984 29.0417 99.5469 29.4205C100.395 29.7992 101.13 30.2652 101.751 30.8182C102.373 31.3712 102.854 32.0227 103.195 32.7727C103.543 33.5227 103.721 34.3826 103.729 35.3523C103.721 36.7765 103.357 38.0114 102.638 39.0568C101.926 40.0947 100.895 40.9015 99.5469 41.4773C98.206 42.0455 96.5885 42.3295 94.6946 42.3295C92.8158 42.3295 91.1795 42.0417 89.7855 41.4659C88.3991 40.8902 87.3158 40.0379 86.5355 38.9091C85.7628 37.7727 85.3575 36.3674 85.3196 34.6932H90.081C90.134 35.4735 90.3575 36.125 90.7514 36.6477C91.1529 37.1629 91.687 37.553 92.3537 37.8182C93.0279 38.0758 93.7893 38.2045 94.6378 38.2045C95.4711 38.2045 96.1946 38.0833 96.8082 37.8409C97.4295 37.5985 97.9105 37.2614 98.2514 36.8295C98.5923 36.3977 98.7628 35.9015 98.7628 35.3409C98.7628 34.8182 98.6075 34.3788 98.2969 34.0227C97.9938 33.6667 97.5469 33.3636 96.956 33.1136C96.3726 32.8636 95.6567 32.6364 94.8082 32.4318L92.2741 31.7955C90.312 31.3182 88.7628 30.572 87.6264 29.5568C86.4901 28.5417 85.9257 27.1742 85.9332 25.4545C85.9257 24.0455 86.3007 22.8144 87.0582 21.7614C87.8234 20.7083 88.8726 19.8864 90.206 19.2955C91.5393 18.7045 93.0545 18.4091 94.7514 18.4091C96.4787 18.4091 97.9863 18.7045 99.2741 19.2955C100.57 19.8864 101.577 20.7083 102.297 21.7614C103.017 22.8144 103.388 24.0341 103.411 25.4205H98.6946ZM106.152 22.7841V18.7273H125.266V22.7841H118.141V42H113.277V22.7841H106.152ZM128.413 42V18.7273H144.095V22.7841H133.334V28.3295H143.288V32.3864H133.334V37.9432H144.141V42H128.413ZM148.007 42V18.7273H157.189C158.946 18.7273 160.446 19.0417 161.689 19.6705C162.939 20.2917 163.89 21.1742 164.541 22.3182C165.2 23.4545 165.53 24.7917 165.53 26.3295C165.53 27.875 165.196 29.2045 164.53 30.3182C163.863 31.4242 162.897 32.2727 161.632 32.8636C160.375 33.4545 158.852 33.75 157.064 33.75H150.916V29.7955H156.268C157.208 29.7955 157.988 29.6667 158.609 29.4091C159.231 29.1515 159.693 28.7652 159.996 28.25C160.306 27.7348 160.462 27.0947 160.462 26.3295C160.462 25.5568 160.306 24.9053 159.996 24.375C159.693 23.8447 159.227 23.4432 158.598 23.1705C157.977 22.8902 157.193 22.75 156.246 22.75H152.928V42H148.007ZM160.575 31.4091L166.359 42H160.928L155.268 31.4091H160.575ZM169.007 42V18.7273H184.689V22.7841H173.928V28.3295H183.882V32.3864H173.928V37.9432H184.734V42H169.007ZM196.851 42H188.601V18.7273H196.919C199.26 18.7273 201.275 19.1932 202.964 20.125C204.654 21.0492 205.953 22.3788 206.862 24.1136C207.779 25.8485 208.237 27.9242 208.237 30.3409C208.237 32.7652 207.779 34.8485 206.862 36.5909C205.953 38.3333 204.646 39.6705 202.942 40.6023C201.245 41.5341 199.214 42 196.851 42ZM193.521 37.7841H196.646C198.101 37.7841 199.324 37.5265 200.317 37.0114C201.317 36.4886 202.067 35.6818 202.567 34.5909C203.074 33.4924 203.328 32.0758 203.328 30.3409C203.328 28.6212 203.074 27.2159 202.567 26.125C202.067 25.0341 201.321 24.2311 200.328 23.7159C199.336 23.2008 198.112 22.9432 196.658 22.9432H193.521V37.7841Z" fill="#5CB338"/>
</svg>
